<?xml version="1.0" encoding="UTF-8" standalone="no"?>
<!DOCTYPE svg PUBLIC "-//W3C//DTD SVG 1.1//EN"
 "http://www.w3.org/Graphics/SVG/1.1/DTD/svg11.dtd">
<!-- Generated by graphviz version 2.39.20160508.1846 (20160508.1846)
 -->
<!-- Title: g Pages: 1 -->
<svg width="138pt" height="310pt"
 viewBox="0.00 0.00 138.00 310.40" xmlns="http://www.w3.org/2000/svg" xmlns:xlink="http://www.w3.org/1999/xlink">
<g id="graph0" class="graph" transform="scale(1 1) rotate(0) translate(4 306.4)">
<title>g</title>
<polygon fill="white" stroke="transparent" points="-4,4 -4,-306.4 134,-306.4 134,4 -4,4"/>
<!-- A -->
<g id="node1" class="node">
<title>A</title>
<ellipse fill="none" stroke="black" cx="74" cy="-284.4" rx="27" ry="18"/>
<text text-anchor="middle" x="74" y="-280.2" font-family="Times,serif" font-size="14.00">A</text>
</g>
<!-- B -->
<g id="node2" class="node">
<title>B</title>
<ellipse fill="none" stroke="black" cx="27" cy="-195.6" rx="27" ry="18"/>
<text text-anchor="middle" x="27" y="-191.4" font-family="Times,serif" font-size="14.00">B</text>
</g>
<!-- A&#45;&#45;B -->
<g id="edge1" class="edge">
<title>A&#45;&#45;B</title>
<path fill="none" stroke="red" d="M64.9379,-267.278C56.6153,-251.554 44.3481,-228.377 36.0343,-212.669"/>
<text text-anchor="middle" x="62" y="-235.8" font-family="Times,serif" font-size="14.00">78</text>
</g>
<!-- C -->
<g id="node3" class="node">
<title>C</title>
<ellipse fill="none" stroke="black" cx="67" cy="-106.8" rx="27" ry="18"/>
<text text-anchor="middle" x="67" y="-102.6" font-family="Times,serif" font-size="14.00">C</text>
</g>
<!-- A&#45;&#45;C -->
<g id="edge2" class="edge">
<title>A&#45;&#45;C</title>
<path fill="none" stroke="black" d="M73.774,-266.314C73.6173,-256.117 73.3693,-243.146 73,-231.6 71.737,-192.114 70.9846,-182.257 69,-142.8 68.7107,-137.048 68.371,-130.781 68.0546,-125.112"/>
<text text-anchor="middle" x="82.5" y="-191.4" font-family="Times,serif" font-size="14.00">810</text>
</g>
<!-- B&#45;&#45;C -->
<g id="edge3" class="edge">
<title>B&#45;&#45;C</title>
<path fill="none" stroke="red" d="M34.9027,-178.056C41.9153,-162.488 52.1061,-139.864 59.1137,-124.308"/>
<text text-anchor="middle" x="58" y="-147" font-family="Times,serif" font-size="14.00">15</text>
</g>
<!-- E -->
<g id="node4" class="node">
<title>E</title>
<ellipse fill="none" stroke="black" cx="31" cy="-18" rx="27" ry="18"/>
<text text-anchor="middle" x="31" y="-13.8" font-family="Times,serif" font-size="14.00">E</text>
</g>
<!-- C&#45;&#45;E -->
<g id="edge4" class="edge">
<title>C&#45;&#45;E</title>
<path fill="none" stroke="black" d="M59.8876,-89.256C53.5763,-73.6881 44.4045,-51.0644 38.0977,-35.5076"/>
<text text-anchor="middle" x="56.5" y="-58.2" font-family="Times,serif" font-size="14.00">7</text>
</g>
<!-- F -->
<g id="node5" class="node">
<title>F</title>
<ellipse fill="none" stroke="black" cx="103" cy="-18" rx="27" ry="18"/>
<text text-anchor="middle" x="103" y="-13.8" font-family="Times,serif" font-size="14.00">F</text>
</g>
<!-- C&#45;&#45;F -->
<g id="edge5" class="edge">
<title>C&#45;&#45;F</title>
<path fill="none" stroke="red" d="M74.1124,-89.256C80.4237,-73.6881 89.5955,-51.0644 95.9023,-35.5076"/>
<text text-anchor="middle" x="95" y="-58.2" font-family="Times,serif" font-size="14.00">70</text>
</g>
</g>
</svg>
