<?xml version="1.0" encoding="UTF-8" standalone="no"?>
<!DOCTYPE svg PUBLIC "-//W3C//DTD SVG 1.1//EN"
 "http://www.w3.org/Graphics/SVG/1.1/DTD/svg11.dtd">
<!-- Generated by graphviz version 2.39.20160508.1846 (20160508.1846)
 -->
<!-- Title: g Pages: 1 -->
<svg width="378pt" height="438pt"
 viewBox="0.00 0.00 377.61 437.60" xmlns="http://www.w3.org/2000/svg" xmlns:xlink="http://www.w3.org/1999/xlink">
<g id="graph0" class="graph" transform="scale(1 1) rotate(0) translate(4 433.6)">
<title>g</title>
<polygon fill="white" stroke="transparent" points="-4,4 -4,-433.6 373.609,-433.6 373.609,4 -4,4"/>
<!-- 0 -->
<g id="node1" class="node">
<title>0</title>
<ellipse fill="none" stroke="black" cx="171" cy="-411.6" rx="27" ry="18"/>
<text text-anchor="middle" x="171" y="-407.4" font-family="Times,serif" font-size="14.00">0</text>
</g>
<!-- 1 -->
<g id="node2" class="node">
<title>1</title>
<ellipse fill="none" stroke="black" cx="27" cy="-322.8" rx="27" ry="18"/>
<text text-anchor="middle" x="27" y="-318.6" font-family="Times,serif" font-size="14.00">1</text>
</g>
<!-- 0&#45;&gt;1 -->
<g id="edge1" class="edge">
<title>0&#45;&gt;1</title>
<path fill="none" stroke="black" d="M144.524,-407.187C111.532,-401.184 57.7349,-389.575 43.3908,-375.6 36.6477,-369.03 32.6656,-359.744 30.3186,-350.787"/>
<polygon fill="black" stroke="black" points="33.7441,-350.068 28.3036,-340.976 26.8872,-351.476 33.7441,-350.068"/>
<text text-anchor="middle" x="70.3046" y="-363" font-family="Times,serif" font-size="14.00">5.61e+08</text>
</g>
<!-- 2 -->
<g id="node3" class="node">
<title>2</title>
<ellipse fill="none" stroke="black" cx="103" cy="-322.8" rx="27" ry="18"/>
<text text-anchor="middle" x="103" y="-318.6" font-family="Times,serif" font-size="14.00">2</text>
</g>
<!-- 0&#45;&gt;2 -->
<g id="edge2" class="edge">
<title>0&#45;&gt;2</title>
<path fill="none" stroke="black" d="M145.648,-404.85C130.898,-399.494 113.472,-390.385 104.391,-375.6 99.8869,-368.267 98.4982,-359.216 98.5459,-350.69"/>
<polygon fill="black" stroke="black" points="102.039,-350.912 99.2038,-340.703 95.054,-350.452 102.039,-350.912"/>
<text text-anchor="middle" x="131.305" y="-363" font-family="Times,serif" font-size="14.00">1.22e+09</text>
</g>
<!-- 3 -->
<g id="node4" class="node">
<title>3</title>
<ellipse fill="none" stroke="black" cx="262" cy="-322.8" rx="27" ry="18"/>
<text text-anchor="middle" x="262" y="-318.6" font-family="Times,serif" font-size="14.00">3</text>
</g>
<!-- 0&#45;&gt;3 -->
<g id="edge3" class="edge">
<title>0&#45;&gt;3</title>
<path fill="none" stroke="black" d="M186.437,-396.536C200.817,-382.503 222.45,-361.394 238.889,-345.352"/>
<polygon fill="black" stroke="black" points="241.775,-347.427 246.487,-337.938 236.886,-342.417 241.775,-347.427"/>
<text text-anchor="middle" x="251.305" y="-363" font-family="Times,serif" font-size="14.00">5.64e+08</text>
</g>
<!-- 4 -->
<g id="node5" class="node">
<title>4</title>
<ellipse fill="none" stroke="black" cx="317" cy="-268.8" rx="27" ry="18"/>
<text text-anchor="middle" x="317" y="-264.6" font-family="Times,serif" font-size="14.00">4</text>
</g>
<!-- 0&#45;&gt;4 -->
<g id="edge4" class="edge">
<title>0&#45;&gt;4</title>
<path fill="none" stroke="red" d="M197.768,-409.025C222.329,-405.373 258.381,-396.599 282,-375.6 304.356,-355.724 312.488,-321.35 315.415,-296.972"/>
<polygon fill="red" stroke="red" points="318.911,-297.179 316.401,-286.886 311.944,-296.498 318.911,-297.179"/>
<text text-anchor="middle" x="321.305" y="-363" font-family="Times,serif" font-size="14.00">1.54e+09</text>
</g>
<!-- 5 -->
<g id="node6" class="node">
<title>5</title>
<ellipse fill="none" stroke="black" cx="111" cy="-214.8" rx="27" ry="18"/>
<text text-anchor="middle" x="111" y="-210.6" font-family="Times,serif" font-size="14.00">5</text>
</g>
<!-- 0&#45;&gt;5 -->
<g id="edge5" class="edge">
<title>0&#45;&gt;5</title>
<path fill="none" stroke="black" d="M173.876,-393.394C177.889,-362.124 182.109,-297.113 157,-250.8 153.058,-243.529 146.958,-237.236 140.476,-232.037"/>
<polygon fill="black" stroke="black" points="142.348,-229.072 132.194,-226.045 138.245,-234.743 142.348,-229.072"/>
<text text-anchor="middle" x="199.805" y="-318.6" font-family="Times,serif" font-size="14.00">8.5e+08</text>
</g>
<!-- 1&#45;&gt;5 -->
<g id="edge6" class="edge">
<title>1&#45;&gt;5</title>
<path fill="none" stroke="black" d="M27.9727,-304.795C29.658,-289.082 34.204,-266.413 46.3908,-250.8 54.3533,-240.599 66.0597,-232.85 77.3282,-227.204"/>
<polygon fill="black" stroke="black" points="78.971,-230.301 86.599,-222.948 76.0506,-223.939 78.971,-230.301"/>
<text text-anchor="middle" x="73.3046" y="-264.6" font-family="Times,serif" font-size="14.00">7.62e+08</text>
</g>
<!-- 2&#45;&gt;5 -->
<g id="edge7" class="edge">
<title>2&#45;&gt;5</title>
<path fill="none" stroke="black" d="M102.539,-304.702C102.363,-290.112 102.548,-269.086 104.391,-250.8 104.662,-248.107 105.026,-245.314 105.445,-242.528"/>
<polygon fill="black" stroke="black" points="108.896,-243.11 107.129,-232.663 101.996,-241.931 108.896,-243.11"/>
<text text-anchor="middle" x="131.305" y="-264.6" font-family="Times,serif" font-size="14.00">4.24e+08</text>
</g>
<!-- 6 -->
<g id="node7" class="node">
<title>6</title>
<ellipse fill="none" stroke="black" cx="232" cy="-214.8" rx="27" ry="18"/>
<text text-anchor="middle" x="232" y="-210.6" font-family="Times,serif" font-size="14.00">6</text>
</g>
<!-- 3&#45;&gt;6 -->
<g id="edge8" class="edge">
<title>3&#45;&gt;6</title>
<path fill="none" stroke="black" d="M244.329,-308.89C238.049,-302.853 231.715,-295.232 228.391,-286.8 222.904,-272.882 223.328,-256.265 225.339,-242.502"/>
<polygon fill="black" stroke="black" points="228.789,-243.089 227.115,-232.627 221.9,-241.85 228.789,-243.089"/>
<text text-anchor="middle" x="255.305" y="-264.6" font-family="Times,serif" font-size="14.00">6.47e+08</text>
</g>
<!-- 7 -->
<g id="node8" class="node">
<title>7</title>
<ellipse fill="none" stroke="black" cx="317" cy="-160.8" rx="27" ry="18"/>
<text text-anchor="middle" x="317" y="-156.6" font-family="Times,serif" font-size="14.00">7</text>
</g>
<!-- 4&#45;&gt;7 -->
<g id="edge9" class="edge">
<title>4&#45;&gt;7</title>
<path fill="none" stroke="red" d="M317,-250.479C317,-233.621 317,-208.365 317,-188.947"/>
<polygon fill="red" stroke="red" points="320.5,-188.85 317,-178.85 313.5,-188.85 320.5,-188.85"/>
<text text-anchor="middle" x="343.305" y="-210.6" font-family="Times,serif" font-size="14.00">4.16e+08</text>
</g>
<!-- 9 -->
<g id="node9" class="node">
<title>9</title>
<ellipse fill="none" stroke="black" cx="232" cy="-18" rx="27" ry="18"/>
<text text-anchor="middle" x="232" y="-13.8" font-family="Times,serif" font-size="14.00">9</text>
</g>
<!-- 5&#45;&gt;9 -->
<g id="edge10" class="edge">
<title>5&#45;&gt;9</title>
<path fill="none" stroke="black" d="M112.069,-196.673C114.346,-170.823 121.433,-122.747 143.391,-88.8 158.137,-66.0027 182.703,-47.2242 202.234,-34.7487"/>
<polygon fill="black" stroke="black" points="204.124,-37.6954 210.8,-29.4685 200.45,-31.7365 204.124,-37.6954"/>
<text text-anchor="middle" x="170.305" y="-102.6" font-family="Times,serif" font-size="14.00">1.26e+09</text>
</g>
<!-- 8 -->
<g id="node10" class="node">
<title>8</title>
<ellipse fill="none" stroke="black" cx="232" cy="-106.8" rx="27" ry="18"/>
<text text-anchor="middle" x="232" y="-102.6" font-family="Times,serif" font-size="14.00">8</text>
</g>
<!-- 6&#45;&gt;8 -->
<g id="edge11" class="edge">
<title>6&#45;&gt;8</title>
<path fill="none" stroke="black" d="M229.809,-196.512C229.227,-190.844 228.679,-184.572 228.391,-178.8 227.592,-162.82 227.592,-158.78 228.391,-142.8 228.513,-140.365 228.68,-137.841 228.877,-135.311"/>
<polygon fill="black" stroke="black" points="232.387,-135.364 229.809,-125.088 225.416,-134.728 232.387,-135.364"/>
<text text-anchor="middle" x="255.305" y="-156.6" font-family="Times,serif" font-size="14.00">6.98e+08</text>
</g>
<!-- 7&#45;&gt;9 -->
<g id="edge12" class="edge">
<title>7&#45;&gt;9</title>
<path fill="none" stroke="red" d="M316.225,-142.442C314.42,-119.669 308.475,-80.6025 289,-54 282.503,-45.1256 273.096,-37.9157 263.79,-32.3439"/>
<polygon fill="red" stroke="red" points="265.446,-29.2601 254.997,-27.5031 262.07,-35.3921 265.446,-29.2601"/>
<text text-anchor="middle" x="340.305" y="-102.6" font-family="Times,serif" font-size="14.00">1.46e+08</text>
</g>
<!-- 8&#45;&gt;9 -->
<g id="edge13" class="edge">
<title>8&#45;&gt;9</title>
<path fill="none" stroke="black" d="M232,-88.4006C232,-76.2949 232,-60.2076 232,-46.4674"/>
<polygon fill="black" stroke="black" points="235.5,-46.072 232,-36.072 228.5,-46.0721 235.5,-46.072"/>
<text text-anchor="middle" x="258.305" y="-58.2" font-family="Times,serif" font-size="14.00">1.36e+09</text>
</g>
</g>
</svg>
