<?xml version="1.0" encoding="UTF-8" standalone="no"?>
<!DOCTYPE svg PUBLIC "-//W3C//DTD SVG 1.1//EN"
 "http://www.w3.org/Graphics/SVG/1.1/DTD/svg11.dtd">
<!-- Generated by graphviz version 2.39.20160508.1846 (20160508.1846)
 -->
<!-- Title: g Pages: 1 -->
<svg width="134pt" height="222pt"
 viewBox="0.00 0.00 134.00 221.60" xmlns="http://www.w3.org/2000/svg" xmlns:xlink="http://www.w3.org/1999/xlink">
<g id="graph0" class="graph" transform="scale(1 1) rotate(0) translate(4 217.6)">
<title>g</title>
<polygon fill="white" stroke="transparent" points="-4,4 -4,-217.6 130,-217.6 130,4 -4,4"/>
<!-- A -->
<g id="node1" class="node">
<title>A</title>
<ellipse fill="none" stroke="black" cx="62" cy="-195.6" rx="27" ry="18"/>
<text text-anchor="middle" x="62" y="-191.4" font-family="Times,serif" font-size="14.00">A</text>
</g>
<!-- B -->
<g id="node2" class="node">
<title>B</title>
<ellipse fill="none" stroke="black" cx="27" cy="-106.8" rx="27" ry="18"/>
<text text-anchor="middle" x="27" y="-102.6" font-family="Times,serif" font-size="14.00">B</text>
</g>
<!-- A&#45;&gt;B -->
<g id="edge1" class="edge">
<title>A&#45;&gt;B</title>
<path fill="none" stroke="red" d="M55.0851,-178.056C50.0996,-165.407 43.2782,-148.1 37.6066,-133.711"/>
<polygon fill="red" stroke="red" points="40.8237,-132.328 33.9005,-124.308 34.3113,-134.894 40.8237,-132.328"/>
<text text-anchor="middle" x="51.5" y="-147" font-family="Times,serif" font-size="14.00">1</text>
</g>
<!-- E -->
<g id="node3" class="node">
<title>E</title>
<ellipse fill="none" stroke="black" cx="99" cy="-106.8" rx="27" ry="18"/>
<text text-anchor="middle" x="99" y="-102.6" font-family="Times,serif" font-size="14.00">E</text>
</g>
<!-- A&#45;&gt;E -->
<g id="edge2" class="edge">
<title>A&#45;&gt;E</title>
<path fill="none" stroke="black" d="M69.31,-178.056C74.5804,-165.407 81.7916,-148.1 87.7873,-133.711"/>
<polygon fill="black" stroke="black" points="91.0897,-134.885 91.7052,-124.308 84.6282,-132.192 91.0897,-134.885"/>
<text text-anchor="middle" x="90" y="-147" font-family="Times,serif" font-size="14.00">21</text>
</g>
<!-- C -->
<g id="node4" class="node">
<title>C</title>
<ellipse fill="none" stroke="black" cx="27" cy="-18" rx="27" ry="18"/>
<text text-anchor="middle" x="27" y="-13.8" font-family="Times,serif" font-size="14.00">C</text>
</g>
<!-- B&#45;&gt;C -->
<g id="edge3" class="edge">
<title>B&#45;&gt;C</title>
<path fill="none" stroke="black" d="M27,-88.4006C27,-76.2949 27,-60.2076 27,-46.4674"/>
<polygon fill="black" stroke="black" points="30.5001,-46.072 27,-36.072 23.5001,-46.0721 30.5001,-46.072"/>
<text text-anchor="middle" x="30.5" y="-58.2" font-family="Times,serif" font-size="14.00">3</text>
</g>
<!-- D -->
<g id="node5" class="node">
<title>D</title>
<ellipse fill="none" stroke="black" cx="99" cy="-18" rx="27" ry="18"/>
<text text-anchor="middle" x="99" y="-13.8" font-family="Times,serif" font-size="14.00">D</text>
</g>
<!-- B&#45;&gt;D -->
<g id="edge4" class="edge">
<title>B&#45;&gt;D</title>
<path fill="none" stroke="red" d="M39.8722,-90.9243C50.8616,-77.3707 66.8373,-57.6674 79.413,-42.1573"/>
<polygon fill="red" stroke="red" points="82.4171,-44.0095 85.9965,-34.0376 76.9798,-39.6009 82.4171,-44.0095"/>
<text text-anchor="middle" x="76" y="-58.2" font-family="Times,serif" font-size="14.00">16</text>
</g>
<!-- E&#45;&gt;D -->
<g id="edge5" class="edge">
<title>E&#45;&gt;D</title>
<path fill="none" stroke="black" d="M99,-88.4006C99,-76.2949 99,-60.2076 99,-46.4674"/>
<polygon fill="black" stroke="black" points="102.5,-46.072 99,-36.072 95.5001,-46.0721 102.5,-46.072"/>
<text text-anchor="middle" x="102.5" y="-58.2" font-family="Times,serif" font-size="14.00">4</text>
</g>
</g>
</svg>
